<?xml version="1.0" encoding="utf-8"?>
<!-- Generator: Adobe Illustrator 17.0.0, SVG Export Plug-In . SVG Version: 6.00 Build 0)  -->
<svg version="1.2" baseProfile="tiny" id="Layer_1" xmlns="http://www.w3.org/2000/svg" xmlns:xlink="http://www.w3.org/1999/xlink"
	 x="0px" y="0px" width="54px" height="26px" viewBox="0 0 54 26" xml:space="preserve">
<g>
	<g>
		<path fill="#CCCCCC" d="M8.054,9.134L4.339,17h2.689l0.712-1.309h4.562L13.014,17h2.689l-3.725-7.866H8.054z M8.598,13.655
			l1.235-2.761h0.366l1.235,2.761H8.598z M22.33,13.556c-0.061,0.143-0.081,0.946-0.172,0.946c-0.091,0-0.112-0.803-0.172-0.946
			l-1.907-4.423h-4.006V17h2.231v-5.512c0-0.231-0.102-0.473-0.102-0.605c0-0.055,0.01-0.088,0.061-0.088
			c0.071,0,0.152,0.242,0.203,0.363L21.245,17h1.825l2.576-5.82c0.051-0.121,0.132-0.363,0.203-0.363
			c0.041,0,0.061,0.022,0.061,0.066c0,0.165-0.102,0.385-0.102,0.627V17h2.231V9.134h-3.803L22.33,13.556z M29.058,17h8.057v-1.903
			H31.36v-1.078h5.493v-1.892H31.36v-1.089h5.755V9.134h-8.057V17z M49,9.134h-3.191l-2.156,2.53l-2.156-2.53h-3.191l3.422,3.851
			L38.306,17h3.097l2.25-2.641L45.903,17H49l-3.422-4.016L49,9.134z"/>
	</g>
</g>
</svg>
