<?xml version="1.0" encoding="utf-8"?>
<!-- Generator: Adobe Illustrator 17.0.0, SVG Export Plug-In . SVG Version: 6.00 Build 0)  -->
<svg version="1.2" baseProfile="tiny" id="Layer_1" xmlns="http://www.w3.org/2000/svg" xmlns:xlink="http://www.w3.org/1999/xlink"
	 x="0px" y="0px" width="100px" height="56px" viewBox="0 0 100 56" xml:space="preserve">
<g>
	<g>
		<path fill="#828282" d="M45.329,10.179c5.776-2.834,16.272-1.081,16.183,7.009c0.008-0.757-2.003-1.565-2.488-1.768
			c-3.395-1.428-7.875,0.216-9.247,3.521c-1.084,2.611-0.449,5.568,1.279,7.739c-0.014-2.469,1.619-4.882,3.98-5.651
			c2.121-0.69,5.638,0.423,5.212,3.195c0.04-0.259-0.611-0.635-0.767-0.729c-1.096-0.655-2.713-0.31-3.346,0.757
			c-0.599,1.012-0.412,2.337,0.379,3.199c0.708,0.773,1.63,1.132,2.606,1.252c3.81-2.827,6.312-7.321,6.312-12.43
			c0-8.569-6.946-15.515-15.515-15.515S34.404,7.707,34.404,16.276c0,2.454,0.621,4.743,1.636,6.806
			C36.919,17.669,40.38,12.607,45.329,10.179z"/>
	</g>
	<g>
		<path fill="#828282" d="M9.97,52.304v-7.04c-0.675-0.116-1.058-0.182-1.151-0.199c-0.173-0.034-0.259-0.141-0.259-0.32V44h1.41
			h1.471h1.254v0.744c0,0.179-0.09,0.286-0.268,0.32l-1.049,0.351V56l-0.785-0.036c-0.237,0-0.436-0.101-0.597-0.303l-6.751-8.83
			c0.023,0.294,0,0.701,0,0.944v6.811C3.926,54.7,4.281,54.882,4.368,54.9c0.173,0.035,0.26,0.141,0.26,0.32v0.744H0.5V55.22
			c0-0.179,0.087-0.285,0.26-0.32l1.071-0.315v-9.169c-0.554-0.11-0.967-0.328-1.071-0.351c-0.173-0.034-0.26-0.141-0.26-0.32V44
			h2.111c0.15,0,0.261,0.019,0.333,0.056c0.072,0.038,0.154,0.114,0.247,0.229l6.823,8.91C9.985,52.947,9.97,52.621,9.97,52.304z"/>
		<path fill="#828282" d="M26.557,44v2.994h-0.733c-0.202,0-0.323-0.101-0.363-0.303c-0.012-0.052-0.052-0.493-0.121-1.324
			L20.5,45.415v3.936h3.698v1.415H20.5v3.818l4.848,0.012c0.064-0.767,0.101-1.177,0.112-1.228c0.04-0.196,0.162-0.294,0.363-0.294
			h0.733v2.89h-8.711V55.22c0-0.179,0.086-0.285,0.259-0.32l0.987-0.199v-9.437c-0.554-0.11-0.883-0.176-0.987-0.199
			c-0.173-0.034-0.259-0.141-0.259-0.32V44H26.557z"/>
		<path fill="#828282" d="M50.876,44v0.744c0,0.179-0.086,0.286-0.26,0.32l-1.113,0.199l-3.478,10.7h-1.505l-3.141-9.022
			c-0.064-0.179-0.121-0.386-0.173-0.623c-0.029,0.104-0.056,0.212-0.082,0.324c-0.026,0.112-0.053,0.212-0.082,0.299l-3.158,9.022
			h-1.505l-3.47-10.7c-0.479-0.11-0.77-0.176-0.874-0.199c-0.173-0.034-0.26-0.141-0.26-0.32V44h4.205v0.744
			c0,0.179-0.086,0.286-0.26,0.32c-0.588,0.121-0.917,0.188-0.986,0.199l2.301,7.274c0.075,0.259,0.153,0.658,0.234,1.108
			c0.104-0.514,0.19-0.912,0.26-1.108l2.916-8.139c0.035-0.098,0.103-0.189,0.203-0.273S40.871,44,41.015,44H41.5
			c0.288,0,0.479,0.133,0.571,0.398l2.898,8.139c0.104,0.3,0.196,0.687,0.277,1.073c0.035-0.184,0.067-0.365,0.095-0.541
			c0.029-0.176,0.067-0.383,0.112-0.533l2.31-7.274c-0.069-0.012-0.395-0.078-0.977-0.199c-0.179-0.034-0.268-0.141-0.268-0.32V44
			h3.374H50.876z"/>
		<path fill="#828282" d="M68.071,55.317V56h-3.774v-0.683c0-0.156,0.078-0.254,0.234-0.294l0.709-0.199l-0.709-2.813L59.5,52
			l-1.405,2.787l0.709,0.199c0.156,0.04,0.303,0.175,0.303,0.331V56h-3.774v-0.683c0-0.156,0.075-0.251,0.225-0.286l0.841-0.244
			L60.89,44h1.704l4.482,10.787l0.77,0.244C67.996,55.066,68.071,55.161,68.071,55.317z M63.825,51.239l-1.716-4.487
			c-0.127-0.311-0.251-0.701-0.372-1.168c-0.138,0.507-0.26,0.9-0.363,1.177l-1.795,4.478H63.825z"/>
		<path fill="#828282" d="M85.526,44v0.744c0,0.179-0.086,0.286-0.26,0.32l-0.68,0.199l-4.542,10.7H78.53l-4.534-10.7
			c-0.479-0.11-0.77-0.176-0.874-0.199c-0.173-0.034-0.26-0.141-0.26-0.32V44h4.118v0.744c0,0.179-0.114,0.291-0.342,0.338
			c-0.228,0.046-0.529,0.106-0.904,0.182l3.158,7.447c0.121,0.288,0.26,0.741,0.415,1.358c0.127-0.588,0.254-1.041,0.381-1.358
			l3.141-7.447c-0.554-0.11-0.715-0.176-0.819-0.199c-0.173-0.034-0.26-0.141-0.26-0.32V44H85.526z"/>
		<path fill="#828282" d="M99.5,44v2.994h-0.831c-0.202,0-0.323-0.101-0.363-0.303c-0.012-0.052-0.052-0.493-0.121-1.324
			l-4.477,0.048v3.956h3.497l0.033,1.415h-3.53v3.798l4.486,0.012c0.064-0.767,0.101-1.177,0.112-1.228
			c0.04-0.196,0.162-0.294,0.363-0.294H99.5V56h-8.609v-0.78c0-0.179,0.086-0.285,0.259-0.32l1.142-0.295v-9.169
			c-0.554-0.129-1.038-0.347-1.142-0.371c-0.173-0.034-0.259-0.141-0.259-0.32V44H99.5z"/>
	</g>
</g>
</svg>
