<?xml version="1.0" encoding="utf-8"?>
<!-- Generator: Adobe Illustrator 17.0.0, SVG Export Plug-In . SVG Version: 6.00 Build 0)  -->
<svg version="1.2" baseProfile="tiny" id="Layer_1" xmlns="http://www.w3.org/2000/svg" xmlns:xlink="http://www.w3.org/1999/xlink"
	 x="0px" y="0px" width="54px" height="26px" viewBox="0 0 54 26" xml:space="preserve">
<g>
	<g>
		<path fill="#CCCCCC" d="M34,3c-2.278,0-4.367,0.803-6.004,2.14C26.361,3.805,24.276,3,22,3c-5.247,0-9.5,4.254-9.5,9.5
			c0,5.247,4.253,9.5,9.5,9.5c2.276,0,4.362-0.804,5.998-2.139C29.634,21.197,31.723,22,34,22c5.247,0,9.5-4.253,9.5-9.5
			C43.5,7.254,39.247,3,34,3z M24.522,13h6.071c0.276,0,0.5,0.224,0.5,0.5c0,0.276-0.224,0.5-0.5,0.5h-5.969
			c0.056,0.351,0.141,0.692,0.234,1.029C24.904,15.015,24.95,15,25,15h5.368c0.276,0,0.5,0.224,0.5,0.5c0,0.276-0.224,0.5-0.5,0.5
			h-5.177c0.137,0.346,0.307,0.674,0.479,1h3.623c0.276,0,0.5,0.224,0.5,0.5c0,0.276-0.224,0.5-0.5,0.5h-2.999
			c0.1,0.142,0.184,0.296,0.293,0.432C25.318,19.414,23.728,20,22,20c-4.142,0-7.5-3.358-7.5-7.5S17.858,5,22,5
			c1.728,0,3.319,0.585,4.587,1.567C26.475,6.707,26.372,6.854,26.268,7h3.025c0.276,0,0.5,0.224,0.5,0.5c0,0.276-0.224,0.5-0.5,0.5
			h-3.651c-0.174,0.322-0.329,0.657-0.466,1h5.154c0.276,0,0.5,0.224,0.5,0.5c0,0.276-0.224,0.5-0.5,0.5H25
			c-0.052,0-0.099-0.015-0.145-0.029c-0.094,0.335-0.16,0.681-0.218,1.029h5.955c0.276,0,0.5,0.224,0.5,0.5
			c0,0.276-0.224,0.5-0.5,0.5h-6.056c-0.009,0.167-0.036,0.33-0.036,0.5C24.5,12.669,24.513,12.834,24.522,13z"/>
	</g>
</g>
</svg>
