<?xml version="1.0" encoding="utf-8"?>
<!-- Generator: Adobe Illustrator 17.0.0, SVG Export Plug-In . SVG Version: 6.00 Build 0)  -->
<svg version="1.2" baseProfile="tiny" id="Layer_1" xmlns="http://www.w3.org/2000/svg" xmlns:xlink="http://www.w3.org/1999/xlink"
	 x="0px" y="0px" width="54px" height="26px" viewBox="0 0 54 26" xml:space="preserve">
<g>
	<path fill="#2A98BD" d="M22.667,5.833c0,0-2,3.478-2,6.967c0,3.511,2,7.033,2,7.033h2c0,0-2-3.549-2-7.074c0-3.475,2-6.926,2-6.926
		H22.667z M37.667,5.833c-3.866,0-7,3.134-7,7c0,3.866,3.134,7,7,7c3.866,0,7-3.134,7-7C44.667,8.967,41.533,5.833,37.667,5.833z
		 M37.667,17.833c-2.762,0-5-2.239-5-5c0-2.761,2.238-5,5-5c2.761,0,5,2.239,5,5C42.667,15.595,40.428,17.833,37.667,17.833z
		 M27.667,5.833c0,0-2,3.478-2,6.967c0,3.511,2,7.033,2,7.033h2c0,0-2-3.549-2-7.074c0-3.475,2-6.926,2-6.926H27.667z M17.667,5.833
		c0,0-2,3.478-2,6.967c0,3.511,2,7.033,2,7.033h2c0,0-2-3.549-2-7.074c0-3.475,2-6.926,2-6.926H17.667z"/>
</g>
</svg>
