<?xml version="1.0" encoding="utf-8"?>
<!-- Generator: Adobe Illustrator 17.0.0, SVG Export Plug-In . SVG Version: 6.00 Build 0)  -->
<svg version="1.2" baseProfile="tiny" id="Layer_1" xmlns="http://www.w3.org/2000/svg" xmlns:xlink="http://www.w3.org/1999/xlink"
	 x="0px" y="0px" width="14px" height="13px" viewBox="0 0 14 13" xml:space="preserve">
<g>
	<path fill="#39A0C2" d="M6.289,0.996c-2.485,0-4.5,2.015-4.5,4.5s2.015,4.5,4.5,4.5s4.5-2.015,4.5-4.5S8.774,0.996,6.289,0.996z
		 M6.289,9.096c-1.988,0-3.6-1.612-3.6-3.6c0-1.988,1.612-3.6,3.6-3.6s3.6,1.612,3.6,3.6C9.889,7.484,8.277,9.096,6.289,9.096z"/>
	<path fill="#39A0C2" d="M12.577,10.961L10.69,9.074c-0.981,0,0,0-0.981,0l0,0c0.101,0.922,0,0,0.101,0.922l1.852,1.879
		c0.195,0.195,0.558,0.149,0.811-0.104S12.772,11.156,12.577,10.961z"/>
</g>
</svg>
