<?xml version="1.0" encoding="utf-8"?>
<!-- Generator: Adobe Illustrator 17.0.0, SVG Export Plug-In . SVG Version: 6.00 Build 0)  -->
<svg version="1.2" baseProfile="tiny" id="Layer_1" xmlns="http://www.w3.org/2000/svg" xmlns:xlink="http://www.w3.org/1999/xlink"
	 x="0px" y="0px" width="54px" height="26px" viewBox="0 0 54 26" xml:space="preserve">
<g>
	<path fill="#2A98BD" d="M17.018,5.855l-3.341,7.684c-0.159,0.331-0.312,1.641-0.312,1.641H12.9l-0.101-1.68
		c0,0-0.756-3.497-1.246-5.761c-0.435-1.904-0.734-1.884-1.776-1.884c-2.131,0-6.186,0.016-6.186,0.016s0,0.139,0,0.465
		c1.848,0,3.801,1.243,4.39,3.501c0.981,4.124,2.372,9.971,2.372,9.971h4.161L20.97,5.855H17.018z M22.308,5.855l-2.949,13.954
		h3.789l2.949-13.954H22.308z M32.647,11.677c-0.598-0.452-1.004-0.813-1.217-1.083c-0.213-0.271-0.32-0.562-0.32-0.873
		c0-0.344,0.11-0.604,0.329-0.783c0.22-0.178,0.533-0.267,0.94-0.267c0.764,0,1.69,0.28,2.778,0.84l1.289-2.835
		c-1.216-0.681-2.583-1.021-4.104-1.021c-0.942,0-1.793,0.183-2.553,0.549c-0.76,0.366-1.349,0.882-1.766,1.546
		c-0.417,0.665-0.625,1.414-0.625,2.248c0,0.745,0.168,1.429,0.506,2.052c0.337,0.624,0.878,1.234,1.623,1.833
		c0.611,0.509,0.986,0.838,1.126,0.988c0.14,0.15,0.248,0.299,0.325,0.449c0.076,0.149,0.115,0.31,0.115,0.482
		c0,0.363-0.121,0.643-0.363,0.84c-0.242,0.197-0.598,0.296-1.069,0.296c-0.56,0-1.185-0.115-1.875-0.344
		c-0.69-0.229-1.303-0.512-1.837-0.85v3.341c0.452,0.299,0.989,0.527,1.613,0.682C28.183,19.922,28.845,20,29.545,20
		c1.674,0,2.978-0.393,3.913-1.179c0.935-0.786,1.403-1.885,1.403-3.298c0-0.789-0.182-1.489-0.544-2.1
		C33.955,12.813,33.398,12.231,32.647,11.677z M46.993,5.855h-4.801L35.09,19.809h3.875l1.193-2.615h4.276l0.095,2.615h3.637
		L46.993,5.855z M41.524,14.216l2.071-4.534c0.235-0.509,0.43-1.037,0.582-1.585c-0.025,0.357-0.038,0.773-0.038,1.25l0.019,0.821
		l0.162,4.047H41.524z"/>
</g>
</svg>
