<?xml version="1.0" encoding="utf-8"?>
<!-- Generator: Adobe Illustrator 17.0.0, SVG Export Plug-In . SVG Version: 6.00 Build 0)  -->
<svg version="1.2" baseProfile="tiny" id="Layer_1" xmlns="http://www.w3.org/2000/svg" xmlns:xlink="http://www.w3.org/1999/xlink"
	 x="0px" y="0px" width="54px" height="26px" viewBox="0 0 54 26" xml:space="preserve">
<g>
	<g>
		<path fill="#CCCCCC" d="M21.836,13.031h-0.03L20.498,6.5h-2.964l-1.307,6.531h-0.03L14.966,6.5H11.5l2.721,10.711h3.526
			l1.246-6.353h0.03l1.262,6.353h3.526L26.532,6.5h-3.466L21.836,13.031z M34.634,12.818c0,0.294-0.025,0.565-0.076,0.813
			c-0.051,0.248-0.142,0.461-0.274,0.638c-0.132,0.177-0.304,0.314-0.517,0.41c-0.213,0.096-0.481,0.144-0.806,0.144
			c-0.365,0-0.659-0.053-0.881-0.159c-0.223-0.106-0.395-0.251-0.517-0.433c-0.122-0.182-0.2-0.395-0.236-0.638
			c-0.036-0.243-0.053-0.502-0.053-0.775V6.5h-3.587v5.938c0,0.943,0.116,1.736,0.349,2.379c0.233,0.644,0.572,1.165,1.018,1.565
			c0.446,0.401,0.996,0.687,1.649,0.859c0.654,0.172,1.406,0.258,2.257,0.258c1.814,0,3.144-0.403,3.99-1.208
			c0.846-0.806,1.269-2.085,1.269-3.838V6.5h-3.587V12.818z M40.5,6.5v11h2v-11H40.5z"/>
	</g>
</g>
</svg>
